<?xml version="1.0" encoding="utf-8"?>
<!-- Generator: Adobe Illustrator 24.3.0, SVG Export Plug-In . SVG Version: 6.00 Build 0)  -->
<svg version="1.1" id="Capa_1" xmlns="http://www.w3.org/2000/svg" xmlns:xlink="http://www.w3.org/1999/xlink" x="0px" y="0px"
	 viewBox="0 0 500 148.18" style="enable-background:new 0 0 500 148.18;" xml:space="preserve">
<style type="text/css">
	.st0{fill:#12100B;}
	.st1{fill:#B0ACAB;}
	.st2{fill:#FFFFFF;}
	.st3{fill:url(#SVGID_1_);}
	.st4{fill:url(#SVGID_2_);}
	.st5{fill:url(#SVGID_3_);}
	.st6{fill:url(#SVGID_4_);}
	.st7{opacity:0.2;fill:#13110C;enable-background:new    ;}
	.st8{opacity:0.12;fill:#13110C;enable-background:new    ;}
	.st9{opacity:0.25;fill:#FFFFFF;enable-background:new    ;}
	.st10{fill:#FFFFFF;stroke:#FFFFFF;stroke-width:0.74;stroke-miterlimit:10;}
</style>
<path class="st0" d="M18.52,0.03h462.96c10.23,0,18.52,8.29,18.52,18.52v111.11c0,10.23-8.29,18.52-18.52,18.52H18.52
	C8.29,148.18,0,139.89,0,129.66V18.55C0,8.32,8.29,0.03,18.52,0.03z"/>
<path class="st1" d="M481.48,3c8.57,0.03,15.5,6.98,15.52,15.55v111.12c-0.02,8.59-6.97,15.54-15.56,15.55h-463
	C9.9,145.14,3.02,138.21,3,129.67V18.55C3.02,9.98,9.95,3.03,18.52,3h463 M481.52,0h-463C8.29,0.03,0.01,8.32,0,18.55v111.12
	c0.03,10.21,8.31,18.48,18.52,18.51h463c10.2-0.05,18.45-8.31,18.48-18.51V18.55c-0.03-10.21-8.31-18.48-18.52-18.51L481.52,0z"/>
<path class="st2" d="M252.35,80.6c-8.7,0.04-15.72,7.12-15.68,15.82s7.12,15.72,15.82,15.68c8.67-0.04,15.68-7.08,15.68-15.75
	c0.13-8.57-6.71-15.62-15.29-15.75C252.71,80.6,252.53,80.6,252.35,80.6z M252.35,105.9c-4.77,0-8.89-3.94-8.89-9.55
	s4.12-9.55,8.89-9.55s8.9,3.88,8.9,9.55S257.13,105.9,252.35,105.9z M217.86,80.6c-8.7,0.03-15.72,7.11-15.69,15.81
	s7.11,15.72,15.81,15.69c8.67-0.03,15.69-7.07,15.69-15.75c0.13-8.57-6.72-15.62-15.29-15.75C218.21,80.6,218.03,80.6,217.86,80.6z
	 M217.86,105.9c-4.77,0-8.89-3.94-8.89-9.55s4.12-9.55,8.89-9.55s8.89,3.88,8.89,9.55S222.63,105.9,217.86,105.9z M176.86,85.43
	v6.68h16c-0.48,3.76-1.73,6.51-3.64,8.42c-3.24,3.3-7.73,5.07-12.35,4.89c-9.82,0-17.78-7.97-17.77-17.79
	c0-9.81,7.96-17.77,17.77-17.77c4.47-0.05,8.78,1.66,12,4.77l4.72-4.71c-4.46-4.41-10.5-6.85-16.77-6.75
	c-13.48,0-24.82,10.94-24.82,24.47s11.34,24.47,24.83,24.47c7.28,0,12.77-2.38,17.06-6.86s5.79-10.62,5.79-15.63
	c0.02-1.4-0.11-2.8-0.36-4.18L176.86,85.43z M344.67,90.62c-1.32-3.52-5.31-10-13.49-10S316.32,87,316.32,96.37
	c-0.18,8.51,6.58,15.56,15.1,15.74c0.17,0,0.34,0,0.51,0c5.27,0.03,10.21-2.6,13.12-7l-5.37-3.58c-1.63,2.72-4.58,4.37-7.75,4.36
	c-3.29,0.13-6.32-1.77-7.64-4.78l21.06-8.71L344.67,90.62z M323.19,95.87c-0.31-4.76,3.3-8.87,8.06-9.18c0.06,0,0.11-0.01,0.17-0.01
	c2.75,0,5.07,1.38,5.85,3.35L323.19,95.87z M306,111.11h7V64.85h-7V111.11z M294.69,84.11h-0.23c-2.13-2.31-5.16-3.59-8.3-3.52
	c-7.87,0-15.09,6.92-15.09,15.81s7.22,15.71,15.09,15.71c3.16,0.08,6.19-1.23,8.3-3.58h0.23v2.27c0,6-3.22,9.25-8.41,9.25
	c-3.54-0.08-6.68-2.3-7.93-5.61l-6,2.51c2.33,5.67,7.87,9.35,14,9.3c8.12,0,15-4.77,15-16.41V81.55h-6.57L294.69,84.11z
	 M286.76,105.89c-4.77,0-8.77-4-8.77-9.49s4-9.61,8.77-9.61s8.41,4.06,8.41,9.61C295.17,101.95,291.47,105.9,286.76,105.89
	L286.76,105.89z M377.06,64.84H360.5v46.27h6.91v-17.5h9.65c7.66,0,15.19-5.55,15.19-14.38S384.72,64.85,377.06,64.84L377.06,64.84z
	 M377.24,87.15h-9.83V71.29h9.83c4.38-0.16,8.06,3.27,8.22,7.65c0.16,4.38-3.27,8.06-7.65,8.22
	C377.62,87.17,377.43,87.17,377.24,87.15L377.24,87.15L377.24,87.15z M420,80.51c-5,0-10.19,2.21-12.33,7.09l6.13,2.56
	c1.31-2.56,3.75-3.39,6.32-3.39c3.57,0,7.2,2.14,7.26,6v0.48c-2.22-1.18-4.69-1.79-7.2-1.79c-6.62,0-13.35,3.64-13.35,10.43
	c0,6.19,5.42,10.18,11.5,10.18c4.65,0,7.21-2.08,8.82-4.52h0.23v3.56H434V93.32C434,85.11,427.87,80.51,420,80.51z M419.16,105.89
	c-2.26,0-5.42-1.13-5.42-3.93c0-3.58,3.93-4.95,7.33-4.95c2.2-0.06,4.38,0.48,6.31,1.55c-0.53,4.17-4.06,7.31-8.27,7.33
	L419.16,105.89L419.16,105.89z M458.36,81.52l-7.92,20.08h-0.24l-8.22-20.08h-7.45l12.33,28.06l-7,15.61H447l19-43.67L458.36,81.52
	L458.36,81.52z M396.06,111.11H403V64.85h-6.91L396.06,111.11z"/>
<linearGradient id="SVGID_1_" gradientUnits="userSpaceOnUse" x1="-604.605" y1="-475.265" x2="-666.765" y2="-537.425" gradientTransform="matrix(1 0 0 -1 685.35 -442.9599)">
	<stop  offset="0" style="stop-color:#5099D3"/>
	<stop  offset="0.01" style="stop-color:#519AD4"/>
	<stop  offset="0.26" style="stop-color:#54BAEB"/>
	<stop  offset="0.51" style="stop-color:#57C4F0"/>
	<stop  offset="0.76" style="stop-color:#69C7EB"/>
	<stop  offset="1" style="stop-color:#6EC9EA"/>
</linearGradient>
<path class="st3" d="M38.65,27.95c-1.22,1.45-1.83,3.32-1.71,5.21v81.95c-0.12,1.89,0.5,3.75,1.71,5.2l0.27,0.27l45.89-45.93v-1.08
	L38.92,27.69L38.65,27.95z"/>
<linearGradient id="SVGID_2_" gradientUnits="userSpaceOnUse" x1="-560.04" y1="-517.0749" x2="-649.66" y2="-517.0749" gradientTransform="matrix(1 0 0 -1 685.35 -442.9599)">
	<stop  offset="0" style="stop-color:#FFE000"/>
	<stop  offset="0.41" style="stop-color:#FCBE00"/>
	<stop  offset="0.78" style="stop-color:#F7A500"/>
	<stop  offset="1" style="stop-color:#F59C00"/>
</linearGradient>
<path class="st4" d="M100.1,89.96L84.81,74.65v-1.08l15.3-15.3l0.34,0.2l18.12,10.3c5.18,2.94,5.18,7.75,0,10.69l-18.12,10.3
	L100.1,89.96z"/>
<linearGradient id="SVGID_3_" gradientUnits="userSpaceOnUse" x1="-593.4025" y1="-525.5775" x2="-677.6925" y2="-609.8675" gradientTransform="matrix(1 0 0 -1 685.35 -442.9599)">
	<stop  offset="0" style="stop-color:#E7333E"/>
	<stop  offset="1" style="stop-color:#C4135B"/>
</linearGradient>
<path class="st5" d="M100.45,89.76L84.81,74.11l-46.16,46.16c1.71,1.81,4.52,2,7.7,0.23L100.45,89.76"/>
<linearGradient id="SVGID_4_" gradientUnits="userSpaceOnUse" x1="-658.3199" y1="-443.6499" x2="-620.6799" y2="-481.2899" gradientTransform="matrix(1 0 0 -1 685.35 -442.9599)">
	<stop  offset="0" style="stop-color:#309B69"/>
	<stop  offset="0.07" style="stop-color:#2BA066"/>
	<stop  offset="0.48" style="stop-color:#4FB164"/>
	<stop  offset="0.8" style="stop-color:#63B55D"/>
	<stop  offset="1" style="stop-color:#6CB85B"/>
</linearGradient>
<path class="st6" d="M100.45,58.47l-54.1-30.74c-3.18-1.81-6-1.58-7.7,0.22l46.16,46.16L100.45,58.47z"/>
<path class="st7" d="M100.11,89.41l-53.76,30.55c-3,1.71-5.7,1.59-7.42,0l0,0l-0.28,0.27l0,0l0.27,0.27l0,0
	c1.72,1.55,4.41,1.67,7.42,0l54.1-30.74L100.11,89.41z"/>
<path class="st8" d="M38.65,119.73c-1.21-1.45-1.83-3.31-1.71-5.2v0.58c-0.12,1.89,0.5,3.75,1.71,5.2l0.28-0.27L38.65,119.73z"/>
<path class="st8" d="M118.57,78.92l-18.46,10.49l0.34,0.35l18.12-10.3c2.59-1.47,3.89-3.41,3.89-5.35l0,0
	C122.24,75.87,120.92,77.59,118.57,78.92z"/>
<path class="st9" d="M46.35,28.27l72.22,41c2.35,1.33,3.67,3,3.89,4.8l0,0c0-1.93-1.3-3.87-3.89-5.34l-72.22-41
	c-5.18-2.94-9.41-0.5-9.41,5.43v0.54C36.94,27.77,41.17,25.33,46.35,28.27z"/>
<path class="st10" d="M152.89,48.18V25.96h6.8c3.04-0.15,6.01,0.97,8.19,3.09c2.11,2.14,3.24,5.06,3.12,8.06
	c0.11,2.97-1,5.86-3.07,8c-2.19,2.12-5.15,3.23-8.19,3.08L152.89,48.18z M155.74,45.45h3.95c2.24,0.12,4.44-0.67,6.09-2.2
	c1.55-1.65,2.35-3.88,2.22-6.14c0.37-4.25-2.77-8-7.02-8.38c-0.44-0.04-0.88-0.04-1.32,0h-3.95L155.74,45.45z"/>
<path class="st10" d="M175,48.18V25.96h2.85v22.22H175z"/>
<path class="st10" d="M189.17,48.68c-1.7-0.03-3.35-0.58-4.73-1.57c-1.52-1.05-2.59-2.64-3-4.44L184,41.6
	c0.29,1.21,0.96,2.29,1.91,3.09c0.88,0.81,2.04,1.26,3.24,1.26c1.14,0.02,2.26-0.33,3.18-1c0.86-0.61,1.35-1.6,1.32-2.65
	c0.06-1.12-0.44-2.19-1.32-2.87c-1.27-0.86-2.68-1.5-4.17-1.88c-1.66-0.44-3.19-1.27-4.47-2.41c-1.02-0.98-1.57-2.35-1.52-3.77
	c0-1.59,0.69-3.11,1.89-4.15c1.36-1.2,3.13-1.84,4.94-1.76c1.65-0.07,3.27,0.43,4.59,1.42c1.06,0.78,1.86,1.85,2.3,3.09l-2.61,1.08
	c-0.23-0.8-0.72-1.5-1.38-2c-1.69-1.21-3.96-1.21-5.65,0c-0.73,0.53-1.17,1.38-1.16,2.28c0,0.83,0.4,1.61,1.07,2.1
	c0.95,0.69,2.02,1.21,3.15,1.53c1.09,0.36,2,0.7,2.75,1c0.79,0.36,1.53,0.81,2.23,1.32c0.73,0.53,1.32,1.23,1.7,2.05
	c0.4,0.89,0.6,1.86,0.58,2.84c0.02,1-0.21,1.99-0.67,2.88c-0.41,0.81-1.02,1.49-1.77,2c-0.73,0.5-1.53,0.88-2.37,1.13
	C190.93,48.47,190.05,48.64,189.17,48.68z"/>
<path class="st10" d="M203.54,48.18h-2.85V25.96h7.57c1.81-0.03,3.56,0.64,4.89,1.88c2.61,2.43,2.76,6.52,0.33,9.13
	c-0.11,0.11-0.22,0.22-0.33,0.33c-1.33,1.24-3.08,1.91-4.89,1.88h-4.72L203.54,48.18L203.54,48.18z M203.54,36.45h4.78
	c1.1,0.05,2.16-0.4,2.89-1.21c1.44-1.49,1.44-3.85,0-5.34c-0.74-0.81-1.8-1.25-2.89-1.21h-4.78V36.45z"/>
<path class="st10" d="M237,45.31c-4.5,4.49-11.79,4.49-16.29,0c-2.16-2.17-3.35-5.13-3.3-8.2c-0.07-3.08,1.11-6.05,3.28-8.24
	c4.48-4.5,11.75-4.51,16.25-0.03c0.01,0.01,0.02,0.02,0.03,0.03c2.17,2.19,3.36,5.16,3.29,8.24C240.32,40.17,239.15,43.13,237,45.31
	z M222.8,43.45c3.33,3.33,8.73,3.34,12.06,0.01c0,0,0,0,0.01-0.01c1.65-1.69,2.54-3.98,2.47-6.34c0.08-2.37-0.81-4.68-2.47-6.38
	c-3.34-3.32-8.73-3.32-12.07,0c-1.66,1.7-2.55,4.01-2.47,6.38C220.25,39.47,221.15,41.76,222.8,43.45z"/>
<path class="st10" d="M244.26,48.18V25.96h3.48l10.8,17.29h0.12l-0.12-4.28v-13h2.86v22.21h-3l-11.28-18.07H247l0.13,4.28v13.79
	L244.26,48.18L244.26,48.18z"/>
<path class="st10" d="M266.49,48.18V25.96h2.85v22.22H266.49z"/>
<path class="st10" d="M274.43,48.18V25.96h8c1.69-0.04,3.32,0.58,4.57,1.72c1.25,1.09,1.95,2.67,1.91,4.33
	c0.02,1-0.27,1.97-0.82,2.8c-0.55,0.8-1.3,1.44-2.19,1.83v0.12c1.07,0.36,2.02,1.03,2.7,1.93c0.7,0.9,1.08,2.02,1.06,3.16
	c0.04,1.73-0.69,3.39-2,4.53c-1.29,1.18-2.98,1.83-4.73,1.8H274.43z M277.28,35.49h5.18c0.98,0.04,1.93-0.35,2.6-1.07
	c1.27-1.3,1.27-3.37,0-4.67c-0.63-0.71-1.55-1.1-2.5-1.06h-5.31L277.28,35.49z M277.28,45.49H283c1.01,0.04,1.99-0.39,2.66-1.15
	c0.64-0.68,1-1.58,1-2.51c-0.06-2.05-1.77-3.67-3.82-3.63h-5.62L277.28,45.49z"/>
<path class="st10" d="M293.49,48.18V25.96h2.85v19.49H306v2.73H293.49z"/>
<path class="st10" d="M322.54,28.69h-10.12v7.05h9.12v2.67h-9.12v7h10.12v2.73h-13V25.96h13V28.69z"/>
<path class="st10" d="M347.43,28.69h-10.12v7.05h9.12v2.67h-9.12v7h10.12v2.73h-13V25.96h13V28.69z"/>
<path class="st10" d="M351.89,48.18V25.96h3.48l10.8,17.29h0.12l-0.12-4.28v-13H369v22.21h-3l-11.25-18.07h-0.12l0.12,4.28v13.79
	L351.89,48.18L351.89,48.18z"/>
</svg>
