<?xml version="1.0" encoding="utf-8"?>
<!-- Generator: Adobe Illustrator 24.3.0, SVG Export Plug-In . SVG Version: 6.00 Build 0)  -->
<svg version="1.1" id="Capa_1" xmlns="http://www.w3.org/2000/svg" xmlns:xlink="http://www.w3.org/1999/xlink" x="0px" y="0px"
	 viewBox="0 0 500 148.71" style="enable-background:new 0 0 500 148.71;" xml:space="preserve">
<style type="text/css">
	.st0{fill:#A6A6A6;}
	.st1{fill:#13110C;}
	.st2{fill:#FFFFFF;}
</style>
<path class="st0" d="M482.92,148.71H17.58C7.91,148.71,0,142.56,0,132.9V19.63C0,9.96,7.91,0.05,17.58,0.05h465.34
	c9.66,0,17.08,9.91,17.08,19.58V132.9C500,142.56,492.58,148.71,482.92,148.71z"/>
<path class="st1" d="M497.14,132.9c0.01,7.84-6.35,14.2-14.19,14.21c-0.01,0-0.02,0-0.03,0H17.58c-7.86,0.01-14.23-6.35-14.24-14.21
	V19.63C3.35,11.77,9.72,5.4,17.58,5.4h465.34c7.85,0,14.22,6.37,14.22,14.22v0.01V132.9z"/>
<path class="st2" d="M111.78,75.47c-0.11-12,9.79-17.76,10.24-18c-3.97-5.7-10.4-9.19-17.34-9.42c-7.3-0.77-14.37,4.36-18.09,4.36
	c-3.72,0-9.51-4.29-15.68-4.16c-8.11,0.26-15.49,4.77-19.43,11.86c-8.41,14.55-2.14,35.94,5.91,47.7c4,5.75,8.74,12.19,14.89,12
	s8.28-3.84,15.56-3.84c7.28,0,9.32,3.84,15.6,3.69c6.47-0.1,10.54-5.78,14.43-11.59c2.89-4.11,5.11-8.64,6.6-13.44
	C124.31,94.54,111.9,89.8,111.78,75.47z"/>
<path class="st2" d="M99.91,40.32c3.24-4.05,5.46-9.56,4.84-15.16c-4.69,0.21-10.56,3.24-13.93,7.21c-3,3.49-5.66,9.22-5,14.6
	C91.12,47.37,96.53,44.32,99.91,40.32z"/>
<path class="st2" d="M199,118.94h-8.42l-4.58-14.5h-16l-4.39,14.5h-8.2l15.88-49.35H183L199,118.94z M184.58,98.36l-4.18-12.88
	c-0.44-1.33-1.27-4.43-2.49-9.3h-0.15c-0.48,2.1-1.26,5.2-2.34,9.3l-4.1,12.88H184.58z"/>
<path class="st2" d="M239.86,100.71c0,6.05-1.63,10.83-4.9,14.35c-2.79,3.07-6.77,4.78-10.91,4.69c-4.67,0-8.04-1.69-10.11-5.06
	h-0.15v18.75h-7.9V95.05c0-3.81-0.1-7.72-0.3-11.72h7l0.44,5.64h0.14c2.67-4.24,6.67-6.36,12-6.37c4.09-0.05,7.97,1.8,10.51,5
	C238.47,90.92,239.87,95.29,239.86,100.71z M231.81,101c0.12-3.03-0.7-6.03-2.35-8.57c-1.55-2.26-4.14-3.58-6.88-3.51
	c-1.94,0-3.82,0.69-5.31,1.94c-1.59,1.29-2.68,3.09-3.11,5.09c-0.22,0.79-0.34,1.59-0.37,2.41v5.94c-0.06,2.41,0.79,4.75,2.38,6.55
	c1.56,1.77,3.83,2.75,6.19,2.67c2.77,0.13,5.41-1.17,7-3.44c1.75-2.68,2.61-5.84,2.45-9.03L231.81,101L231.81,101z"/>
<path class="st2" d="M280.8,100.71c0,6.05-1.64,10.83-4.91,14.35c-2.78,3.06-6.75,4.77-10.89,4.69c-4.67,0-8.04-1.69-10.11-5.06
	h-0.14v18.75h-7.91V95.05c0-3.81-0.1-7.72-0.29-11.72h6.95l0.44,5.64h0.15c2.63-4.24,6.63-6.36,12-6.37c4.09-0.05,7.97,1.8,10.51,5
	C279.39,90.92,280.79,95.29,280.8,100.71z M272.74,101c0.12-3.03-0.7-6.03-2.35-8.57c-1.55-2.26-4.14-3.58-6.88-3.51
	c-1.94,0-3.82,0.69-5.31,1.94c-1.58,1.3-2.68,3.09-3.11,5.09c-0.21,0.79-0.33,1.6-0.36,2.41v5.94c-0.07,2.4,0.78,4.74,2.37,6.55
	c1.56,1.77,3.84,2.75,6.2,2.67c2.75,0.11,5.37-1.18,6.95-3.44c1.76-2.67,2.64-5.83,2.49-9.03L272.74,101L272.74,101z"/>
<path class="st2" d="M326.56,105.1c0.14,3.9-1.47,7.65-4.38,10.25c-3.22,2.89-7.69,4.32-13.44,4.32c-5.33,0-9.6-1.02-12.8-3.07
	l1.84-6.59c3.44,2.09,7.4,3.18,11.43,3.15c2.49,0.17,4.97-0.54,7-2c1.64-1.3,2.56-3.3,2.48-5.39c0.06-1.89-0.67-3.72-2-5.06
	c-1.98-1.73-4.3-3.03-6.81-3.82c-8.67-3.22-13-7.94-13-14.15c-0.1-3.86,1.58-7.54,4.55-10c3.02-2.59,7.05-3.89,12.08-3.89
	c3.87-0.13,7.71,0.68,11.2,2.35l-2,6.44c-2.91-1.54-6.16-2.32-9.45-2.27c-2.35-0.14-4.66,0.59-6.51,2.05
	c-1.29,1.13-2.02,2.76-2,4.47c-0.05,1.87,0.79,3.66,2.25,4.83c2.17,1.65,4.6,2.93,7.18,3.81c4.25,1.71,7.38,3.71,9.37,6
	C325.58,98.91,326.66,101.97,326.56,105.1z"/>
<path class="st2" d="M352.71,89.29H344v17.28c0,4.39,1.54,6.58,4.62,6.59c1.18,0.03,2.36-0.1,3.51-0.37l0.22,6
	c-1.98,0.64-4.07,0.94-6.15,0.87c-2.74,0.15-5.41-0.88-7.33-2.85c-1.75-1.9-2.62-5.1-2.63-9.59V89.29H331v-5.94h5.2v-6.51l7.8-2.35
	v8.86h8.72L352.71,89.29z"/>
<path class="st2" d="M392,100.86c0,5.46-1.56,9.95-4.68,13.47c-3.28,3.61-7.61,5.41-13,5.42c-5.23,0-9.38-1.73-12.48-5.2
	c-3.16-3.62-4.82-8.31-4.65-13.11c0-5.51,1.6-10.02,4.79-13.54s7.5-5.28,12.92-5.28c5.23,0,9.43,1.73,12.6,5.2
	C390.5,91.19,392,95.54,392,100.86z M383.8,101.11c0.08-2.96-0.65-5.88-2.13-8.44c-1.36-2.66-4.11-4.31-7.1-4.26
	c-3.03-0.08-5.85,1.57-7.25,4.26c-1.48,2.61-2.22,5.59-2.12,8.59c-0.09,2.96,0.65,5.88,2.12,8.44c2.11,3.93,7.01,5.41,10.94,3.3
	c1.43-0.76,2.59-1.94,3.34-3.37c1.52-2.58,2.29-5.53,2.23-8.52H383.8z"/>
<path class="st2" d="M417.73,90.31c-0.82-0.15-1.65-0.23-2.49-0.22c-2.55-0.12-4.98,1.07-6.45,3.15c-1.38,2.07-2.08,4.52-2,7v18.67
	h-7.91L399,94.56c0-4.1-0.1-7.84-0.3-11.21h6.89l0.29,6.81h0.22c0.76-2.23,2.15-4.18,4-5.63c1.65-1.24,3.66-1.9,5.72-1.91
	c0.67-0.01,1.34,0.04,2,0.15L417.73,90.31z"/>
<path class="st2" d="M453.1,99.46c0.02,1.2-0.08,2.41-0.29,3.59h-23.73c0.1,3.52,1.24,6.2,3.45,8.06c2.2,1.73,4.95,2.61,7.75,2.49
	c3.28,0.04,6.53-0.53,9.6-1.69l1.24,5.49c-3.78,1.55-7.84,2.3-11.93,2.2c-5.52,0-9.85-1.62-13-4.87s-4.72-7.6-4.73-13.07
	c-0.17-4.85,1.39-9.6,4.4-13.4c3-3.78,7.63-5.9,12.45-5.71c5.12,0,9,1.9,11.64,5.71C452.13,91.58,453.23,95.49,453.1,99.46z
	 M445.56,97.46c0.1-2.15-0.44-4.28-1.56-6.12c-1.33-2.18-3.75-3.45-6.3-3.3c-2.51-0.05-4.87,1.16-6.3,3.22
	c-1.34,1.79-2.16,3.92-2.34,6.15L445.56,97.46z"/>
<path class="st2" d="M178.94,28.35l-0.87,3.1c-1.45-0.64-3.02-0.96-4.6-0.93c-2.32-0.12-4.58,0.75-6.23,2.38
	c-1.72,1.91-2.6,4.43-2.44,7c-0.14,2.46,0.67,4.87,2.27,6.74c1.65,1.67,3.94,2.55,6.29,2.41c1.64,0.05,3.28-0.26,4.79-0.9l0.68,3.07
	c-1.95,0.77-4.05,1.11-6.15,1c-3.21,0.18-6.35-0.97-8.68-3.17c-2.21-2.2-3.31-5.2-3.31-9c-0.42-6.61,4.6-12.32,11.22-12.73
	c0.47-0.03,0.94-0.03,1.41-0.01C175.25,27.21,177.18,27.56,178.94,28.35z"/>
<path class="st2" d="M200.42,43.05c0.09,2.42-0.73,4.78-2.31,6.61c-1.63,1.79-3.98,2.77-6.4,2.67c-2.32,0.11-4.57-0.83-6.13-2.56
	c-1.56-1.78-2.37-4.08-2.29-6.44c-0.1-2.44,0.75-4.82,2.36-6.65c1.62-1.77,3.95-2.73,6.35-2.63c2.34-0.1,4.6,0.84,6.19,2.55
	C199.73,38.39,200.52,40.69,200.42,43.05z M196.42,43.17c0.06-1.45-0.29-2.89-1-4.15c-0.67-1.3-2.02-2.12-3.48-2.09
	c-1.53-0.07-2.95,0.76-3.65,2.12c-0.71,1.29-1.06,2.75-1,4.22c-0.05,1.45,0.29,2.88,1,4.15c1.07,1.93,3.5,2.63,5.44,1.56
	c0.66-0.36,1.2-0.91,1.56-1.56c0.76-1.29,1.14-2.76,1.1-4.26L196.42,43.17z"/>
<path class="st2" d="M221.32,51.92h-3.89v-10c0-3.09-1.17-4.63-3.52-4.63c-1.08-0.03-2.12,0.43-2.81,1.27c-0.71,0.83-1.1,1.9-1.08,3
	v10.36h-3.89V39.44c0-1.54,0-3.2-0.14-5h3.42l0.18,2.73h0.11c0.47-0.87,1.16-1.6,2-2.11c1.06-0.66,2.28-1.01,3.53-1
	c1.51-0.04,2.98,0.53,4.06,1.58c1.33,1.3,2,3.23,2,5.79L221.32,51.92z"/>
<path class="st2" d="M238.84,46.9c0.05,1.51-0.62,2.96-1.8,3.91c-1.44,1.06-3.21,1.58-5,1.47c-1.76,0.04-3.5-0.38-5.04-1.23
	l0.82-2.87c1.29,0.79,2.77,1.22,4.28,1.22c2,0,3-0.73,3-2.2c0.02-0.6-0.22-1.18-0.65-1.6c-0.68-0.56-1.46-0.98-2.3-1.24
	c-3.12-1.15-4.68-2.82-4.68-5c-0.02-1.46,0.61-2.85,1.73-3.78c1.28-1.06,2.91-1.61,4.57-1.53c1.54-0.06,3.06,0.28,4.42,1l-0.83,2.8
	c-1.07-0.65-2.3-1-3.56-1c-0.68-0.04-1.35,0.16-1.9,0.57c-0.44,0.36-0.7,0.91-0.68,1.48c-0.01,0.57,0.25,1.12,0.71,1.47
	c0.72,0.52,1.53,0.92,2.38,1.18C237.33,42.75,238.84,44.53,238.84,46.9z"/>
<path class="st2" d="M248.52,51.92h-3.89V34.44h3.89V51.92z M251.86,27.1l-4.35,5.21h-2.7l3.09-5.21
	C247.9,27.1,251.86,27.1,251.86,27.1z"/>
<path class="st2" d="M270.75,34.44c-0.1,1.41-0.15,3.07-0.15,5v10c0,3.77-0.84,6.41-2.52,7.92c-1.82,1.49-4.13,2.23-6.47,2.08
	c-2.04,0.09-4.07-0.4-5.86-1.39l0.9-3c1.51,0.91,3.24,1.37,5,1.33c3.43,0,5.14-1.85,5.14-5.54v-1.69h-0.07
	c-1.08,1.78-3.06,2.81-5.14,2.66c-2.02,0.04-3.94-0.85-5.22-2.41c-1.39-1.72-2.1-3.9-2-6.11c-0.12-2.49,0.74-4.93,2.38-6.8
	c1.32-1.54,3.24-2.43,5.26-2.44c2.09-0.15,4.09,0.93,5.1,2.77h0.08l0.14-2.41L270.75,34.44z M266.75,44.44v-3.09
	c0.02-1.1-0.37-2.17-1.1-3c-0.73-0.84-1.79-1.3-2.9-1.26c-1.29-0.01-2.51,0.61-3.27,1.66c-0.92,1.29-1.37,2.84-1.29,4.42
	c-0.07,1.45,0.35,2.89,1.2,4.07c0.76,1.1,2.03,1.73,3.36,1.69c0.84,0.01,1.65-0.26,2.32-0.77c0.68-0.54,1.18-1.27,1.43-2.11
	c0.15-0.52,0.23-1.07,0.21-1.61C266.71,44.44,266.75,44.44,266.75,44.44z"/>
<path class="st2" d="M292.62,51.92h-3.42l-0.2-2.66h-0.07c-1.11,1.99-3.26,3.18-5.54,3.06c-1.55,0.07-3.05-0.52-4.14-1.62
	c-1.22-1.33-1.83-3.33-1.83-6V34.44h3.88v9.61c0,3.36,1.15,5,3.46,5c1.63,0.07,3.1-0.96,3.6-2.51c0.17-0.47,0.26-0.98,0.25-1.48
	V34.44h3.88v12.45C292.47,48.54,292.52,50.22,292.62,51.92z"/>
<path class="st2" d="M313.78,42.35c0.01,0.59-0.04,1.18-0.15,1.76H302c-0.07,1.52,0.55,2.99,1.69,4c1.08,0.85,2.43,1.29,3.81,1.23
	c1.61,0.02,3.21-0.26,4.71-0.83l0.61,2.7c-1.86,0.76-3.85,1.13-5.86,1.08c-2.37,0.13-4.69-0.74-6.39-2.4
	c-1.6-1.74-2.44-4.06-2.32-6.42c-0.09-2.38,0.68-4.71,2.16-6.58c1.47-1.86,3.73-2.91,6.1-2.84c2.27-0.12,4.43,0.94,5.72,2.81
	C313.3,38.49,313.84,40.4,313.78,42.35z M310.07,41.35c0.05-1.05-0.21-2.1-0.75-3c-0.66-1.07-1.85-1.69-3.1-1.62
	c-1.23-0.02-2.39,0.57-3.1,1.58c-0.66,0.87-1.05,1.91-1.14,3L310.07,41.35z"/>
<path class="st2" d="M323.3,51.92h-3.88V26.41h3.88V51.92z"/>
<path class="st2" d="M346.19,43.05c0.09,2.42-0.73,4.78-2.31,6.61c-1.63,1.79-3.98,2.77-6.4,2.67c-2.33,0.1-4.58-0.84-6.14-2.56
	c-1.55-1.78-2.36-4.08-2.28-6.44c-0.1-2.44,0.75-4.82,2.36-6.65c1.62-1.77,3.94-2.73,6.34-2.63c2.34-0.1,4.61,0.83,6.2,2.55
	C345.5,38.39,346.29,40.69,346.19,43.05z M342.19,43.17c0.05-1.45-0.3-2.88-1-4.15c-0.67-1.31-2.02-2.12-3.49-2.09
	c-1.52-0.07-2.95,0.76-3.64,2.12c-0.72,1.29-1.06,2.75-1,4.22c-0.06,1.45,0.29,2.89,1,4.15c1.07,1.93,3.5,2.63,5.44,1.56
	c0.66-0.36,1.2-0.91,1.56-1.56c0.76-1.29,1.14-2.76,1.09-4.26L342.19,43.17z"/>
<path class="st2" d="M376.8,42.35c0.01,0.59-0.04,1.18-0.15,1.76H365c-0.06,1.52,0.56,2.99,1.69,4c1.08,0.85,2.43,1.29,3.81,1.23
	c1.61,0.02,3.21-0.26,4.72-0.83l0.61,2.7c-1.85,0.74-3.84,1.09-5.83,1.04c-2.37,0.13-4.69-0.74-6.38-2.4
	c-1.61-1.74-2.44-4.06-2.32-6.42c-0.09-2.38,0.68-4.71,2.16-6.58c1.47-1.84,3.72-2.88,6.07-2.8c2.27-0.12,4.43,0.94,5.72,2.81
	C376.32,38.49,376.86,40.4,376.8,42.35z M373.09,41.35c0.06-1.05-0.2-2.1-0.75-3c-0.66-1.07-1.85-1.69-3.1-1.62
	c-1.23-0.02-2.39,0.57-3.09,1.58c-0.65,0.87-1.05,1.91-1.15,3L373.09,41.35z"/>
<path class="st2" d="M397.62,51.92h-3.88v-10c0-3.09-1.17-4.63-3.53-4.63c-1.08-0.03-2.11,0.44-2.8,1.27c-0.71,0.83-1.1,1.9-1.08,3
	v10.36h-3.89V39.44c0-1.54,0-3.2-0.14-5h3.42l0.18,2.73h0.1c0.47-0.87,1.16-1.6,2-2.12c1.06-0.66,2.28-1.01,3.53-1
	c1.51-0.04,2.98,0.53,4.06,1.58c1.35,1.3,2,3.23,2,5.79L397.62,51.92z"/>
<path class="st2" d="M429.36,42.35c0.01,0.59-0.04,1.18-0.15,1.76h-11.65c-0.07,1.52,0.55,2.99,1.69,4
	c1.08,0.85,2.43,1.29,3.81,1.23c1.61,0.02,3.21-0.26,4.71-0.83l0.61,2.7c-1.86,0.76-3.85,1.13-5.86,1.08
	c-2.37,0.13-4.69-0.74-6.39-2.4c-1.6-1.74-2.44-4.06-2.32-6.42c-0.09-2.4,0.69-4.75,2.19-6.62c1.47-1.84,3.73-2.88,6.09-2.8
	c2.27-0.12,4.43,0.94,5.72,2.81C428.88,38.49,429.42,40.4,429.36,42.35z M425.65,41.35c0.05-1.05-0.21-2.1-0.75-3
	c-0.66-1.07-1.85-1.69-3.1-1.62c-1.23-0.02-2.39,0.57-3.1,1.58c-0.65,0.87-1.05,1.91-1.14,3L425.65,41.35z"/>
<path class="st2" d="M438.89,51.92H435V26.41h3.89V51.92z"/>
</svg>
