<?xml version="1.0" encoding="utf-8"?>
<!-- Generator: Adobe Illustrator 24.3.0, SVG Export Plug-In . SVG Version: 6.00 Build 0)  -->
<svg version="1.1" id="Capa_1" xmlns="http://www.w3.org/2000/svg" xmlns:xlink="http://www.w3.org/1999/xlink" x="0px" y="0px"
	 viewBox="0 0 499.95 149.99" style="enable-background:new 0 0 499.95 149.99;" xml:space="preserve">
<style type="text/css">
	.st0{fill:#C1BEBE;}
	.st1{fill:#13110C;}
	.st2{fill:#FFFFFF;}
	.st3{fill-rule:evenodd;clip-rule:evenodd;fill:#CE0E2D;}
</style>
<path class="st0" d="M464.73,0H31.24c-1.13,0-2.26,0-3.4,0c-2.49,0.04-4.97,0.26-7.42,0.66c-2.44,0.41-4.8,1.2-7,2.32
	c-2.21,1.13-4.24,2.6-6,4.36c-1.76,1.76-3.23,3.78-4.36,6c-1.14,2.23-1.93,4.63-2.34,7.1c-0.41,2.45-0.64,4.93-0.66,7.41
	C0,29,0,30.12,0,31.26v87.49c0,1.15,0,2.27,0.06,3.42c0.03,2.48,0.25,4.96,0.66,7.41c0.41,2.44,1.19,4.8,2.31,7
	c2.27,4.48,5.89,8.13,10.36,10.42c2.2,1.13,4.56,1.92,7,2.34c2.45,0.4,4.93,0.62,7.42,0.65c1.14,0,2.27,0,3.4,0h437.5
	c1.13,0,2.28,0,3.41,0c2.48-0.03,4.95-0.25,7.4-0.65c2.46-0.43,4.84-1.21,7.07-2.34c2.22-1.12,4.25-2.59,6-4.36
	c1.77-1.75,3.25-3.78,4.38-6c1.11-2.2,1.88-4.56,2.29-7c0.41-2.45,0.64-4.93,0.69-7.41c0-1.15,0-2.27,0-3.42c0-1.34,0-2.68,0-4V35.3
	c0-1.36,0-2.7,0-4c0-1.14,0-2.28,0-3.41c-0.04-2.48-0.28-4.96-0.69-7.41c-0.41-2.43-1.18-4.79-2.29-7
	C494.7,8.99,491.08,5.32,486.62,3c-2.23-1.11-4.61-1.89-7.07-2.29c-2.45-0.41-4.92-0.63-7.4-0.66c-1.13,0-2.28,0-3.41,0L464.73,0z"
	/>
<path class="st1" d="M31.26,146.76c-1.13,0-2.23,0-3.35,0c-2.32-0.03-4.63-0.23-6.92-0.6c-2.13-0.36-4.2-1.04-6.13-2
	c-3.84-1.97-6.97-5.09-8.95-8.93c-0.97-1.93-1.65-4-2-6.14c-0.38-2.29-0.59-4.61-0.61-6.94c0-0.78-0.06-3.38-0.06-3.38V31.26
	c0,0,0-2.56,0.06-3.31C3.32,25.62,3.52,23.3,3.9,21c0.35-2.14,1.02-4.22,2-6.16c0.97-1.91,2.24-3.65,3.77-5.15
	c1.52-1.52,3.27-2.8,5.19-3.79c1.93-0.97,3.99-1.64,6.12-2c2.3-0.37,4.61-0.58,6.94-0.61h3.34h437.46h3.38
	c2.31,0.02,4.61,0.23,6.88,0.6c2.15,0.35,4.23,1.03,6.18,2c3.85,1.99,6.98,5.14,8.94,9c0.97,1.92,1.65,3.98,2,6.11
	c0.38,2.31,0.6,4.65,0.64,7c0,1.05,0,2.18,0,3.3c0,1.39,0,2.71,0,4v79.4c0,1.35,0,2.66,0,4s0,2.31,0,3.45
	c-0.04,2.3-0.25,4.59-0.63,6.86c-0.34,2.15-1.02,4.24-2,6.18c-1.99,3.82-5.11,6.94-8.94,8.91c-1.94,0.97-4.02,1.65-6.17,2
	c-2.29,0.37-4.6,0.57-6.92,0.6c-1.08,0-2.22,0-3.32,0H31.26V146.76z"/>
<path class="st2" d="M155.45,28.28h13.29l-0.37,3.58h-8.48v5.48h8v3.34h-8v6.08h9l-0.33,3.61h-13.11V28.28z"/>
<path class="st2" d="M177.72,39.1l-6.86-10.82h5l4.33,7.54l4.59-7.54h4.9L182.88,39l7.39,11.41h-5.08l-5-8.31l-5,8.31h-4.9
	L177.72,39.1z"/>
<path class="st2" d="M193,28.28h6.2c2.87,0,5.08,0.58,6.62,1.75c1.54,1.19,2.4,3.06,2.3,5c0.03,1.35-0.31,2.67-1,3.83
	c-0.66,1.09-1.63,1.95-2.78,2.5c-1.28,0.6-2.68,0.9-4.09,0.87c-0.94,0-1.88-0.09-2.81-0.27v8.37H193V28.28z M202.59,37.98
	c0.76-0.75,1.15-1.79,1.08-2.85c0.1-1.04-0.34-2.07-1.15-2.73c-1.02-0.62-2.2-0.91-3.39-0.83h-1.69v7.19c0.66,0.12,1.33,0.19,2,0.2
	c1.12,0.07,2.22-0.27,3.1-0.96L202.59,37.98z"/>
<path class="st2" d="M211.73,28.28h4.44v18.35H225l-0.32,3.74h-13L211.73,28.28z"/>
<path class="st2" d="M230.92,49.29c-1.61-0.9-2.92-2.26-3.76-3.9c-0.9-1.81-1.35-3.82-1.3-5.84c-0.05-2.12,0.43-4.22,1.39-6.11
	c0.91-1.7,2.3-3.09,4-4c1.89-0.99,4.01-1.49,6.15-1.44c2.04-0.05,4.05,0.42,5.85,1.38c1.6,0.89,2.91,2.23,3.75,3.86
	c0.88,1.8,1.32,3.79,1.28,5.8c0.05,2.14-0.43,4.26-1.4,6.17c-0.91,1.7-2.3,3.09-4,4c-1.88,0.98-3.98,1.47-6.1,1.42
	C234.74,50.7,232.72,50.24,230.92,49.29z M240.65,46.22c1.01-0.7,1.79-1.67,2.24-2.81c0.52-1.3,0.77-2.7,0.75-4.1
	c0.02-1.36-0.2-2.72-0.66-4c-0.4-1.13-1.13-2.11-2.1-2.82c-1.09-0.74-2.39-1.11-3.7-1.05c-1.31-0.04-2.59,0.33-3.68,1.06
	c-1.01,0.72-1.79,1.72-2.26,2.87c-0.51,1.25-0.77,2.59-0.75,3.94c-0.03,1.39,0.22,2.77,0.71,4.07c0.44,1.14,1.19,2.13,2.18,2.85
	c1.07,0.71,2.34,1.06,3.62,1C238.29,47.28,239.57,46.92,240.65,46.22z M234.21,26.63l4-4.77l4.4,0.38L237,27L234.21,26.63z"/>
<path class="st2" d="M252.36,28.28h7.25c2.67,0,4.65,0.51,5.94,1.53c1.34,1.04,2.09,2.67,2,4.36c0.03,2.01-0.84,3.93-2.38,5.23
	c-0.6,0.51-1.27,0.92-2,1.22l6.72,9.75h-5.09l-5.48-8.59h-2.52v8.59h-4.44V28.28z M258.68,38.5c0.78,0.02,1.55-0.15,2.25-0.49
	c0.63-0.31,1.17-0.79,1.53-1.4c0.37-0.63,0.55-1.36,0.54-2.09c0.07-0.86-0.29-1.69-0.95-2.24c-0.82-0.53-1.79-0.78-2.77-0.71h-2.48
	v6.93L258.68,38.5L258.68,38.5z"/>
<path class="st2" d="M284.83,44.77h-8.45l-2,5.6h-4.47l8.58-22.11h4.36l8.76,22.11h-4.75L284.83,44.77z M277.6,41.35h6l-2.12-5.84
	c-0.31-0.8-0.61-1.74-0.91-2.82c-0.24,0.89-0.53,1.83-0.86,2.81L277.6,41.35z"/>
<path class="st2" d="M294.31,28.28h4.44v18.35h8.85l-0.32,3.74h-13L294.31,28.28z"/>
<path class="st2" d="M313.49,49.29c-1.61-0.9-2.92-2.26-3.76-3.9c-0.89-1.81-1.33-3.82-1.29-5.84c-0.04-2.12,0.43-4.22,1.38-6.11
	c0.91-1.7,2.3-3.09,4-4c1.9-1,4.03-1.49,6.18-1.44c2.04-0.06,4.05,0.42,5.85,1.38c1.6,0.9,2.91,2.25,3.74,3.89
	c0.89,1.8,1.33,3.79,1.29,5.8c0.05,2.14-0.43,4.26-1.4,6.17c-0.91,1.7-2.3,3.09-4,4c-1.88,0.98-3.98,1.47-6.1,1.42
	C317.33,50.72,315.3,50.25,313.49,49.29z M323.23,46.22c1-0.7,1.78-1.68,2.23-2.81c0.52-1.3,0.77-2.7,0.75-4.1
	c0.02-1.36-0.2-2.71-0.65-4c-0.4-1.13-1.13-2.11-2.1-2.82c-2.26-1.4-5.12-1.4-7.38,0c-1.01,0.72-1.8,1.72-2.27,2.87
	c-0.51,1.25-0.77,2.59-0.75,3.94c-0.02,1.39,0.22,2.77,0.72,4.07c0.44,1.14,1.22,2.13,2.22,2.83c1.07,0.71,2.33,1.06,3.61,1
	C320.89,47.25,322.15,46.91,323.23,46.22L323.23,46.22z"/>
<path class="st2" d="M344.69,28.28H358l-0.37,3.58h-8.48v5.48h8v3.34h-8v6.08h8.95l-0.32,3.61h-13.09V28.28z"/>
<path class="st2" d="M362.31,28.28h5.11l10.22,16.39c-0.1-1.84-0.15-3.34-0.15-4.51V28.28h4.08v22.09h-5l-10.4-16.64
	c0.12,1.92,0.17,3.65,0.17,5.18v11.46h-4.07L362.31,28.28z"/>
<path class="st2" d="M185.44,101.38h-17.35L163.84,113h-7.63l17-43.35h7.21L197.8,113h-8L185.44,101.38z M170.28,95.49h12.95
	l-4.64-12.42c-0.64-1.72-1.26-3.61-1.88-5.68c-0.56,1.83-1.17,3.71-1.83,5.62L170.28,95.49z"/>
<path class="st2" d="M201.24,88.61c0-2.4-0.08-5.03-0.24-7.9h6.94c0.26,1.35,0.44,2.72,0.54,4.1c2.44-2.94,6.05-4.66,9.87-4.7
	c4.53-0.07,8.65,2.61,10.43,6.77c1.22,2.81,1.8,5.86,1.69,8.93c0.09,3.33-0.57,6.63-1.93,9.67c-1.15,2.52-3.03,4.63-5.4,6.07
	c-2.43,1.41-5.19,2.12-8,2.07c-2.21-0.01-4.4-0.38-6.49-1.11v13.34l-7.39,0.63L201.24,88.61z M220.67,105.1
	c1.51-2,2.27-4.96,2.26-8.87c0-3.61-0.62-6.22-1.87-7.85c-1.17-1.58-3.03-2.5-5-2.44c-1.4-0.02-2.78,0.32-4,1
	c-1.29,0.73-2.46,1.64-3.47,2.72V107c0.82,0.39,1.68,0.68,2.57,0.86c0.95,0.21,1.93,0.31,2.9,0.31
	C216.64,108.33,219.12,107.17,220.67,105.1L220.67,105.1z"/>
<path class="st2" d="M235.2,88.61c0-2.4-0.08-5.03-0.24-7.9h6.94c0.26,1.35,0.44,2.72,0.54,4.1c2.44-2.94,6.05-4.66,9.87-4.7
	c4.53-0.07,8.65,2.61,10.43,6.77c1.22,2.82,1.79,5.87,1.69,8.93c0.09,3.33-0.57,6.63-1.93,9.67c-1.15,2.52-3.03,4.63-5.4,6.07
	c-2.43,1.41-5.19,2.12-8,2.07c-2.21-0.01-4.4-0.38-6.49-1.11v13.34l-7.39,0.63L235.2,88.61z M254.63,105.1c1.5-2,2.26-5,2.26-8.87
	c0-3.61-0.63-6.22-1.87-7.85c-1.17-1.58-3.03-2.5-5-2.44c-1.4-0.02-2.78,0.32-4,1c-1.29,0.73-2.46,1.64-3.47,2.72V107
	c0.82,0.39,1.68,0.68,2.57,0.86c0.95,0.21,1.93,0.31,2.9,0.31C250.6,108.32,253.08,107.17,254.63,105.1z"/>
<path class="st2" d="M278.37,110.94c-3.16-1.74-5.72-4.38-7.36-7.59c-1.79-3.62-2.67-7.62-2.57-11.66c-0.12-4.33,0.91-8.61,3-12.41
	c1.86-3.3,4.67-5.96,8.06-7.65c3.56-1.74,7.48-2.62,11.44-2.56c2.4-0.01,4.8,0.26,7.14,0.82c2.19,0.52,4.31,1.28,6.33,2.26
	l-1.89,5.68c-3.5-1.78-7.36-2.74-11.29-2.83c-2.77-0.04-5.49,0.65-7.91,2c-2.3,1.3-4.15,3.26-5.32,5.62c-1.33,2.81-1.97,5.89-1.89,9
	c-0.05,2.81,0.44,5.6,1.45,8.22c0.91,2.32,2.51,4.31,4.58,5.69c2.36,1.47,5.1,2.2,7.88,2.09c1.44,0,2.89-0.12,4.31-0.36
	c1.36-0.21,2.7-0.55,4-1v-8.77h-10v-5.74h17.2V110c-2.5,1.16-5.11,2.05-7.79,2.66c-2.67,0.61-5.39,0.92-8.13,0.92
	C285.7,113.67,281.83,112.76,278.37,110.94z"/>
<path class="st2" d="M332.22,113c-0.28-1.41-0.45-2.84-0.51-4.28c-1.24,1.43-2.74,2.61-4.44,3.45c-1.91,0.97-4.04,1.46-6.18,1.42
	c-1.75,0.03-3.48-0.35-5.07-1.09c-1.51-0.71-2.78-1.86-3.64-3.29c-0.94-1.63-1.41-3.49-1.34-5.37c-0.11-2.89,1.14-5.66,3.38-7.49
	c2.25-1.87,6.01-2.81,11.28-2.8c1.96,0,3.92,0.14,5.86,0.42v-0.63c0-2.85-0.61-4.85-1.83-6c-1.45-1.25-3.32-1.88-5.23-1.75
	c-1.71,0.02-3.41,0.25-5.06,0.69c-1.62,0.4-3.2,0.95-4.72,1.65l-1.17-5.39c1.68-0.72,3.42-1.27,5.21-1.64
	c2.24-0.51,4.53-0.76,6.82-0.75c2.44-0.07,4.86,0.37,7.12,1.27c1.99,0.88,3.6,2.42,4.57,4.37c1.21,2.6,1.78,5.46,1.65,8.33v12.83
	c0,1.34,0.08,3.36,0.24,6.08L332.22,113z M327.79,107c1.43-0.65,2.71-1.59,3.77-2.75v-6c-1.64-0.2-3.29-0.31-4.94-0.33
	c-3.05,0-5.16,0.49-6.32,1.48c-1.17,0.99-1.81,2.47-1.75,4c-0.11,1.31,0.35,2.61,1.27,3.55c0.96,0.81,2.2,1.22,3.45,1.15
	C324.84,108.08,326.39,107.7,327.79,107z"/>
<path class="st2" d="M345.38,105.24V67.09l7.36-0.59v37.42c-0.09,1.03,0.16,2.05,0.71,2.92c0.57,0.61,1.4,0.93,2.23,0.85
	c0.66-0.03,1.31-0.14,1.94-0.33l0.87,5.3c-0.83,0.31-1.69,0.54-2.56,0.67c-0.94,0.16-1.9,0.25-2.86,0.25
	C347.95,113.58,345.39,110.8,345.38,105.24z"/>
<path class="st2" d="M363.78,105.24V67.09l7.36-0.59v37.42c-0.09,1.03,0.16,2.05,0.71,2.92c0.57,0.61,1.39,0.93,2.22,0.85
	c0.66-0.03,1.32-0.14,1.95-0.33l0.87,5.3c-0.83,0.31-1.69,0.54-2.56,0.67c-0.94,0.16-1.9,0.25-2.86,0.25
	C366.35,113.58,363.79,110.8,363.78,105.24z"/>
<path class="st2" d="M407.52,97.79H386.4c0.34,6.76,3.56,10.14,9.66,10.14c1.57,0,3.13-0.19,4.66-0.55
	c1.56-0.37,3.08-0.86,4.56-1.48l1.61,5c-3.8,1.8-7.97,2.7-12.17,2.63c-3.01,0.1-6-0.57-8.68-1.94c-2.31-1.26-4.17-3.22-5.31-5.59
	c-1.25-2.76-1.86-5.77-1.78-8.8c-0.08-3.17,0.56-6.32,1.89-9.2c1.13-2.44,2.96-4.49,5.25-5.9c2.35-1.37,5.04-2.06,7.76-2
	c2.71-0.1,5.39,0.65,7.65,2.14c2.03,1.44,3.59,3.44,4.5,5.76c1.01,2.5,1.52,5.17,1.48,7.86L407.52,97.79z M400.31,93.09
	c0.03-2.09-0.66-4.13-1.94-5.79c-1.19-1.29-2.89-2-4.64-1.93c-1.77-0.04-3.47,0.67-4.68,1.95c-1.39,1.62-2.24,3.64-2.44,5.77H400.31
	z"/>
<path class="st2" d="M413.48,88.81c0-1.77-0.08-4.47-0.24-8.1h6.91c0.12,0.89,0.23,2,0.34,3.21s0.19,2.26,0.23,3
	c0.74-1.26,1.59-2.46,2.52-3.58c0.82-0.95,1.81-1.74,2.91-2.34c1.16-0.62,2.46-0.94,3.78-0.91c0.99-0.02,1.98,0.1,2.93,0.36
	l-0.92,6.4c-0.78-0.23-1.59-0.34-2.4-0.33c-1.62-0.03-3.2,0.44-4.54,1.35c-1.61,1.22-3.02,2.7-4.15,4.38V113h-7.36L413.48,88.81z"/>
<path class="st2" d="M437.29,126.19c-0.9-0.14-1.79-0.36-2.66-0.64l1.35-5.38c0.5,0.14,1.13,0.27,1.88,0.4
	c0.71,0.13,1.44,0.19,2.16,0.2c3.27,0,5.73-2.11,7.36-6.32l0.47-1.19L436,80.71h7.92l6,18.19c0.78,2.34,1.41,4.73,1.88,7.15
	c0.56-2.34,1.23-4.67,2-7l6.07-18.34h7.45l-11.96,32.69c-0.88,2.64-2.1,5.15-3.62,7.48c-1.15,1.77-2.73,3.22-4.59,4.22
	c-1.99,0.97-4.18,1.44-6.39,1.38C439.6,126.48,438.44,126.39,437.29,126.19z"/>
<g id="形状_1_拷贝_25">
	<path class="st3" d="M101.34,27.29H59.61c-19.66,0-26.85,7.19-26.85,26.85v41.72c0,19.66,7.19,26.85,26.85,26.85h41.71
		c19.66,0,26.86-7.19,26.86-26.85V54.14C128.18,34.48,121,27.29,101.34,27.29z"/>
</g>
<path class="st2" d="M51.66,75h2.53v12.48h-2.53v-5.06h-5.72v5.06h-2.53V75h2.53v5h5.72V75z M65.92,82.14c0,2-1,3.11-2.84,3.11
	c-1.84,0-2.85-1.11-2.85-3.2V75H57.7v7.13c0,3.51,1.95,5.52,5.35,5.52c3.4,0,5.4-2,5.4-5.62V75h-2.53
	C65.92,75,65.92,82.14,65.92,82.14z M95.17,83.58L92.34,75h-2.07l-2.83,8.58L84.68,75H82l4.35,12.47h2.09l2.84-8.19l2.84,8.19h2.11
	L100.56,75h-2.63L95.17,83.58z M105.09,82.1h4.61v-2.26h-4.61v-2.55h6.69V75h-9.18v12.48h9.4V85.2h-6.93L105.09,82.1z M115.09,87.46
	h2.49V75H115L115.09,87.46z M73.45,84.88l-1.14,2.6h-2.58L75.23,75h2.23l5.47,12.47h-2.65l-1.12-2.6L73.45,84.88z M74.39,82.63h3.83
	l-1.92-4.46L74.39,82.63z"/>
<path class="st2" d="M80.47,59.12c-8.77-0.01-15.87-7.11-15.88-15.88h2.24c0,7.53,6.1,13.64,13.64,13.64
	c7.53,0,13.64-6.1,13.64-13.64v-0.01h2.25C96.35,52.01,89.24,59.11,80.47,59.12z"/>
</svg>
